<svg version="1.1" id="Layer_1" xmlns="http://www.w3.org/2000/svg" x="0" y="0" viewBox="0 0 340.2 55.4" xml:space="preserve"><style>.st1{fill:#ffffff}</style><path d="M50.3 43.7c-1 1.4-2.2 2.8-3.4 4-5 4.8-11.7 7.7-19.2 7.7-7.4 0-14.2-2.9-19.2-7.7-1.3-1.2-2.4-2.5-3.4-4-1-1.4-1.9-2.9-2.6-4.5-.6-1.2-1-2.5-1.4-3.8-.1-.4-.2-.8-.3-1.1-.3-1.3-.5-2.6-.7-4-.1-.9-.1-1.7-.1-2.6 0-.9 0-1.7.1-2.6.1-1.4.4-2.7.7-4 .1-.4.2-.8.3-1.1.4-1.3.9-2.6 1.4-3.8L7 18.7c-.2.4-.3.8-.5 1.2-.5 1.2-.8 2.5-1 3.8-.1.4-.1.9-.2 1.3-.1.8-.1 1.7-.1 2.6 0 .9 0 1.7.1 2.6.1.4.1.9.2 1.3.2 1.3.6 2.6 1 3.8.2.4.3.8.5 1.2.7 1.6 1.6 3.1 2.6 4.5 1.1 1.4 2.3 2.7 3.6 3.9 3.9 3.3 9 5.3 14.5 5.3s10.6-2 14.5-5.3L35.5 41c-2.3 1.3-4.9 2.1-7.8 2.1-2.8 0-5.5-.8-7.8-2.1-1.6-.9-3-2.1-4.2-3.5-.6-.7-1.1-1.4-1.5-2.1-.4-.7-.8-1.5-1.1-2.3-.3-.9-.6-1.9-.8-2.8-.1-.8-.2-1.7-.2-2.6 0-.9.1-1.7.2-2.6H38c0-.1-.1-.3-.1-.4-.5-1.7-1.4-3.2-2.6-4.5l-.3-.3c-1.3-1.3-3-2.2-4.9-2.7-.8-.2-1.7-.3-2.6-.3-.9 0-1.7.1-2.6.3-1.9.5-3.5 1.4-4.9 2.7l-.3.3-.2-.2-3.7-2.1-6.2-3.6-4.5-2.6c1-1.4 2.2-2.8 3.4-4C13.5 2.9 20.3 0 27.7 0c7.4 0 14.2 2.9 19.2 7.7l-4.7 2.7c-3.9-3.3-9-5.3-14.5-5.3s-10.6 2-14.5 5.3l6.7 3.9c2.3-1.3 4.9-2.1 7.8-2.1 2.8 0 5.5.8 7.8 2.1 1.6.9 3 2.1 4.2 3.5.6.7 1.1 1.4 1.5 2.1.4.7.8 1.5 1.1 2.3.3.9.6 1.9.8 2.8.1.8.2 1.7.2 2.6 0 .9-.1 1.7-.2 2.6H17.3c0 .1.1.3.1.4.5 1.7 1.4 3.2 2.6 4.4l.3.3c1.3 1.3 3 2.2 4.9 2.7.8.2 1.7.3 2.6.3.9 0 1.7-.1 2.6-.3 1.9-.5 3.5-1.4 4.9-2.7l.3-.3.5.3 3.7 2.1L46 41l4.3 2.7z" fill="#00d59f"/><path class="st1" d="M71.8 29.4c0 1.7.7 3.1 2.1 4.3 1.3 1.1 2.9 1.7 4.6 1.7 2.9 0 4.9-1.2 6.2-3.5l3.7 2.4c-1.9 3.5-5.6 5.5-9.7 5.5-3.4 0-6.2-1.1-8.5-3.4s-3.4-5.1-3.4-8.5c0-3.3 1.1-6.1 3.3-8.4 2.2-2.3 4.9-3.5 8.2-3.5 3.5 0 6.2 1.1 8.2 3.2 2 2.2 2.9 5 2.9 8.5 0 .7 0 1.2-.1 1.6H71.8zm.2-3.9h12c-.2-3.2-2.7-5.2-5.9-5.2-3.1 0-5.6 2.1-6.1 5.2zM96.1 19.9c2.1-2.4 4.9-3.6 8.3-3.6 1.2 0 2.6.3 4 .9 1.5.6 2.6 1.5 3.4 2.7V4.8h5.1v34.8h-5v-3.5c-.8 1.3-2 2.3-3.5 2.9-1.5.6-2.9.9-4.1.9-3.2 0-5.9-1.2-8-3.5-2.1-2.4-3.2-5.1-3.2-8.3-.2-3 .9-5.8 3-8.2zM100 23c-1.2 1.4-1.9 3.1-1.9 5.1s.6 3.7 1.9 5.1c1.3 1.4 2.9 2.1 5 2.1 2 0 3.7-.7 4.9-2.1 1.3-1.4 1.9-3.1 1.9-5.1s-.6-3.7-1.9-5.1c-1.3-1.4-2.9-2.1-4.9-2.1-2.1 0-3.7.7-5 2.1zM126.3 29.4c0 1.7.7 3.1 2.1 4.3 1.3 1.1 2.9 1.7 4.6 1.7 2.9 0 4.9-1.2 6.2-3.5l3.7 2.4c-1.9 3.5-5.6 5.5-9.7 5.5-3.4 0-6.2-1.1-8.5-3.4s-3.4-5.1-3.4-8.5c0-3.3 1.1-6.1 3.3-8.4 2.2-2.3 4.9-3.5 8.2-3.5 3.5 0 6.2 1.1 8.2 3.2 2 2.2 2.9 5 2.9 8.5 0 .7 0 1.2-.1 1.6h-17.5zm.3-3.9h12c-.2-3.2-2.7-5.2-5.9-5.2s-5.7 2.1-6.1 5.2zM160.4 21.6c-.4-.1-.9-.1-1.5-.1-3.9 0-5.9 2.3-5.9 6.2v11.6h-5V16.5h5v3.6c1.4-2.6 3.5-3.8 6.3-3.8.6 0 .9 0 1.2.1v5.2z"/><g><path class="st1" d="M171.8 36.3c-2.3-2.3-3.4-5.1-3.4-8.5 0-3.2 1.2-6 3.4-8.3 2.3-2.3 5.1-3.5 8.5-3.5 5.1 0 8.9 2.8 10.3 6.8l-4.4 2c-1-2.8-2.9-4.2-5.9-4.2-1.9 0-3.5.7-4.8 2-1.3 1.3-1.9 3-1.9 5.1 0 2.1.6 3.9 1.9 5.3 1.3 1.4 2.9 2.1 4.8 2.1 2.9 0 4.8-1.4 5.9-4.2l4.4 2c-.6 1.8-1.9 3.5-3.6 4.8-1.8 1.4-4 2.1-6.8 2.1-3.4-.1-6.2-1.2-8.4-3.5zM209.8 39.3V26.5c0-3.4-1.7-5.7-5-5.7-3.2 0-5.3 2.3-5.3 5.8v12.7h-5.1V4.5h5.1v14.9c1.8-2.3 4.1-3.4 6.8-3.4 5.6 0 8.5 3.8 8.5 9.2v14.1h-5zM233.6 21.6c-.4-.1-.9-.1-1.5-.1-3.9 0-5.9 2.3-5.9 6.2v11.6h-5.1V16.5h5v3.6c1.4-2.6 3.5-3.8 6.3-3.8.6 0 .9 0 1.2.1v5.2zM237 6.7c1.3-1.4 3.4-1.4 4.7 0 1.3 1.3 1.3 3.4 0 4.7s-3.4 1.3-4.7 0c-1.4-1.3-1.4-3.4 0-4.7zm4.9 32.6h-5.1V16.5h5.1v22.8zM245.5 33.9l4-2.2c1.2 2.4 3 3.7 5.5 3.7 1.9 0 3.6-1 3.6-2.5 0-1.3-1.6-2.4-4.7-3-2.5-.5-4.4-1.4-5.7-2.7-1.1-1.2-1.6-2.5-1.6-4.1 0-2.1.8-3.7 2.5-5 1.7-1.3 3.6-2 5.8-2 4.1 0 7 1.7 8.5 5.1l-3.9 2.2c-1-2-2.6-3.1-4.8-3.1-1.6 0-3.2 1-3.2 2.2 0 1.5 1.3 2.3 4.2 2.9 5.2 1.2 7.9 3.6 7.9 7.2 0 2.1-.8 3.8-2.4 5.1-1.6 1.3-3.7 2-6.2 2-4.5 0-7.7-2-9.5-5.8zM275.1 21v10.1c0 2.7 1.3 3.8 3.9 3.8.5 0 1.1 0 1.6-.2V39c-.8.3-1.8.5-2.7.5-5 0-7.9-2.6-7.9-7.6V21h-4.2v-4.6h4.2v-7h5.1v7.1h5.6V21h-5.6zM285.7 6.7c1.3-1.4 3.4-1.4 4.7 0 1.3 1.3 1.3 3.4 0 4.7a3.32 3.32 0 01-4.7 0c-1.4-1.3-1.4-3.4 0-4.7zm4.9 32.6h-5.1V16.5h5.1v22.8zM304.7 20.4c-2.6 0-4.5 1.2-5.7 3.6l-3.9-2.2c1.8-3.9 5-5.8 9.7-5.8 4.3 0 7.1 1.5 8.5 4.7.5 1.2.8 2.5.8 4.1v14.5h-5v-3.1c-1.4 2.4-3.6 3.5-6.7 3.5-2.2 0-4.1-.6-5.5-1.9-1.5-1.2-2.2-2.9-2.2-4.8v-.3c0-5.3 5.5-7 9.5-7h2.8c1.4 0 2.1-.6 2.1-1.9.1-1.9-1.5-3.4-4.4-3.4zm4.5 8.9h-4.9c-1.1 0-2.1.3-3 .9-.9.6-1.4 1.3-1.4 2.3 0 1.9 1.5 3.1 3.6 3.1 3.5 0 5.7-2.1 5.7-5.6v-.7zM335.1 39.3V26.5c0-3.4-1.7-5.7-5-5.7-3.2 0-5.3 2.3-5.3 5.8v12.7h-5.1V16.5h5v3.1c1.8-2.4 4.1-3.5 7-3.5 5.6 0 8.5 3.8 8.5 9.2v14.1h-5.1z"/></g></svg>